<?xml version="1.0" encoding="utf-8"?>
<!-- Generator: Adobe Illustrator 27.0.0, SVG Export Plug-In . SVG Version: 6.00 Build 0)  -->
<svg version="1.1" id="Layer_1" xmlns="http://www.w3.org/2000/svg" xmlns:xlink="http://www.w3.org/1999/xlink" x="0px" y="0px"
	 viewBox="0 0 512 512" style="enable-background:new 0 0 512 512;" xml:space="preserve">
<style type="text/css">
	.st0{fill:#C41230;}
	.st1{fill:#FFFFFF;}
	
		.st2{clip-path:url(#SVGID_00000183953970764564452320000001123128967865878169_);fill:url(#XMLID_00000021106807183226993050000007421562055697160084_);}
</style>
<g id="XMLID_1_">
	<rect id="XMLID_61_" y="163.14" class="st0" width="512" height="185.72"/>
	<path id="XMLID_86_" class="st1" d="M483.1,324.73c0-0.56-0.14-1.12-0.56-1.4c-0.42-0.28-0.98-0.56-1.54-0.56
		c-0.56,0-0.98,0.14-1.4,0.28c-0.42,0.28-0.7,0.56-0.84,0.98c-0.14,0.14-0.14,0.42-0.14,0.7L483.1,324.73 M485.35,326.14h-7.01
		c0,0.84,0.14,1.54,0.42,2.38c0.28,0.7,0.84,1.4,1.4,1.82c0.7,0.42,1.54,0.7,2.52,0.7c0.84,0,1.54-0.14,2.24-0.42v1.68
		c-0.98,0.28-1.96,0.28-2.95,0.42c-1.4,0-2.52-0.28-3.37-0.84c-0.84-0.56-1.54-1.26-1.96-2.24s-0.56-1.96-0.56-3.23
		c0-0.98,0.14-1.82,0.56-2.67c0.28-0.84,0.84-1.4,1.54-1.82c0.7-0.42,1.68-0.7,2.81-0.7c1.4,0,2.52,0.42,3.23,1.26
		c0.7,0.84,1.12,1.82,1.12,3.09L485.35,326.14L485.35,326.14z M302.57,318.28c-0.84-0.14-1.54-0.28-2.38-0.28
		c-0.84,0-1.4,0.28-1.82,0.7c-0.42,0.42-0.56,0.98-0.56,1.68v1.12h3.65v1.54h-3.65v9.26h-2.24v-9.26h-2.1v-1.54h2.1v-1.26
		c0-1.4,0.42-2.38,1.26-2.95c0.84-0.56,1.96-0.98,3.37-0.98c0.84,0,1.68,0,2.38,0.14V318.28z M306.08,332.31h-2.38V316.6h2.24v15.71
		H306.08z M319.26,321.51l-6.03,15.57h-2.24l1.68-4.63l-4.63-10.94h2.52l3.09,7.86l2.81-7.86L319.26,321.51L319.26,321.51z
		 M323.89,318.84h-2.67v-2.38h2.67V318.84z M323.75,332.31h-2.24v-10.8h2.24V332.31z M337.08,332.31h-2.24v-5.89
		c0-0.42,0-0.84,0-1.4s-0.14-0.98-0.28-1.26c-0.14-0.28-0.7-0.56-1.26-0.56c-0.7,0-1.4,0.28-1.82,0.84s-0.84,1.12-0.98,1.82
		c-0.28,0.7-0.28,1.26-0.28,1.82v4.63h-2.24v-10.8h2.24v2.38c0.42-0.84,0.84-1.4,1.54-1.82c0.56-0.42,1.4-0.7,2.38-0.7
		c0.84,0,1.4,0.14,1.96,0.56c0.42,0.28,0.84,0.7,0.98,1.26c0.14,0.56,0.28,1.12,0.28,1.82L337.08,332.31L337.08,332.31z
		 M349.7,332.73c0,1.54-0.56,2.81-1.54,3.51c-0.98,0.7-2.38,0.98-4.07,0.98c-1.26,0-2.52-0.14-3.65-0.42v-2.1
		c0.56,0.28,1.12,0.42,1.68,0.56c0.56,0.14,1.12,0.28,1.82,0.28c1.26,0,2.24-0.28,2.81-0.84c0.56-0.56,0.7-1.4,0.7-2.52v-1.68
		c-0.28,0.56-0.7,1.12-1.4,1.4c-0.56,0.28-1.26,0.42-1.96,0.42c-1.12,0-1.96-0.28-2.52-0.84c-0.56-0.56-0.98-1.26-1.26-2.1
		c-0.28-0.84-0.28-1.68-0.28-2.52c0-0.84,0.14-1.68,0.28-2.52c0.28-0.84,0.7-1.54,1.26-2.24c0.56-0.56,1.54-0.84,2.67-0.98
		c0.7,0,1.26,0.14,1.82,0.42c0.56,0.28,0.98,0.7,1.26,1.26v-1.54h2.24L349.7,332.73L349.7,332.73z M347.46,326.7
		c0-0.56,0-1.12-0.14-1.68c-0.14-0.56-0.42-1.12-0.84-1.54c-0.42-0.42-0.98-0.7-1.54-0.7c-0.7,0-1.26,0.28-1.54,0.7
		c-0.28,0.42-0.56,0.98-0.7,1.68c-0.14,0.56-0.14,1.12-0.14,1.68c0,0.42,0,0.98,0.14,1.54s0.28,1.12,0.7,1.54
		c0.28,0.42,0.84,0.7,1.54,0.7c0.7,0,1.26-0.28,1.68-0.7c0.42-0.42,0.7-0.98,0.84-1.68C347.46,327.68,347.46,327.12,347.46,326.7z
		 M368.78,318.28c-0.84-0.14-1.54-0.28-2.38-0.28c-0.84,0-1.4,0.28-1.82,0.7c-0.42,0.42-0.56,0.98-0.56,1.68v1.12h3.51v1.54h-3.51
		v9.26h-2.24v-9.26h-2.1v-1.54h2.1v-1.26c0-1.4,0.42-2.38,1.26-2.95c0.84-0.56,1.96-0.98,3.37-0.98c0.84,0,1.68,0,2.38,0.14V318.28
		L368.78,318.28z M379.58,326.84c0,1.12-0.14,1.96-0.56,2.95c-0.28,0.84-0.98,1.54-1.68,1.96c-0.84,0.56-1.82,0.7-3.09,0.84
		c-1.26,0-2.24-0.28-3.09-0.7c-0.7-0.56-1.4-1.12-1.68-1.96c-0.28-0.84-0.56-1.82-0.56-2.95c0-1.12,0.14-2.1,0.56-2.95
		c0.28-0.84,0.98-1.54,1.68-1.96c0.84-0.56,1.82-0.7,3.09-0.7c1.26,0,2.38,0.28,3.09,0.7c0.84,0.56,1.4,1.12,1.68,1.96
		C379.3,324.87,379.58,325.86,379.58,326.84z M377.06,326.84c0-0.56,0-1.26-0.14-1.82c-0.14-0.56-0.42-1.12-0.84-1.54
		c-0.42-0.42-0.98-0.7-1.82-0.7c-0.84,0-1.4,0.28-1.82,0.7c-0.42,0.42-0.7,0.98-0.84,1.54c-0.14,0.56-0.14,1.26-0.14,1.82
		s0,1.26,0.14,1.82c0.14,0.56,0.42,1.12,0.84,1.54c0.42,0.42,0.98,0.7,1.82,0.7c0.84,0,1.4-0.28,1.82-0.7s0.7-0.98,0.84-1.54
		C376.92,328.1,377.06,327.54,377.06,326.84z M388.42,323.47c-0.98,0-1.68,0.14-2.24,0.56s-0.98,0.84-1.12,1.54
		c-0.28,0.7-0.28,1.4-0.28,2.1v4.63h-2.24v-10.8h2.24v2.24c0.28-0.7,0.84-1.4,1.4-1.82s1.4-0.7,2.24-0.7V323.47z M406.51,326.14
		h-7.01c0,0.84,0.14,1.54,0.42,2.38c0.28,0.7,0.84,1.4,1.4,1.82c0.7,0.42,1.54,0.7,2.52,0.7c0.84,0,1.54-0.14,2.24-0.42v1.68
		c-0.98,0.28-1.96,0.28-2.95,0.42c-1.4,0-2.52-0.28-3.37-0.84c-0.84-0.56-1.54-1.26-1.96-2.24s-0.56-1.96-0.56-3.23
		c0-0.98,0.14-1.82,0.56-2.67c0.28-0.84,0.84-1.4,1.54-1.82c0.7-0.42,1.68-0.7,2.81-0.7c1.4,0,2.52,0.42,3.23,1.26
		c0.7,0.84,1.12,1.82,1.12,3.09L406.51,326.14L406.51,326.14z M404.27,324.73c0-0.56-0.28-1.12-0.56-1.4
		c-0.42-0.28-0.98-0.56-1.54-0.56c-0.42,0-0.98,0.14-1.26,0.28c-0.42,0.28-0.7,0.56-0.84,0.98c-0.14,0.14-0.14,0.42-0.14,0.7
		L404.27,324.73L404.27,324.73z M418.58,321.51l-4.21,10.8h-2.38l-4.49-10.8h2.52l3.09,7.86l2.81-7.86H418.58z M428.96,326.14h-7.01
		c0,0.84,0.14,1.54,0.42,2.38c0.28,0.7,0.84,1.4,1.4,1.82c0.7,0.42,1.54,0.7,2.52,0.7c0.84,0,1.54-0.14,2.24-0.42v1.68
		c-0.98,0.28-1.96,0.28-2.95,0.42c-1.4,0-2.52-0.28-3.37-0.84c-0.84-0.56-1.54-1.26-1.96-2.24c-0.42-0.98-0.56-1.96-0.56-3.23
		c0-0.98,0.14-1.82,0.56-2.67c0.28-0.84,0.84-1.4,1.54-1.82c0.7-0.42,1.68-0.7,2.81-0.7c1.54,0,2.52,0.42,3.23,1.26
		c0.7,0.84,1.12,1.82,1.12,3.09L428.96,326.14L428.96,326.14z M426.71,324.73c0-0.56-0.28-1.12-0.56-1.4
		c-0.42-0.28-0.98-0.56-1.54-0.56c-0.56,0-0.98,0.14-1.26,0.28c-0.42,0.28-0.7,0.56-0.84,0.98c-0.14,0.14-0.14,0.42-0.14,0.7
		L426.71,324.73L426.71,324.73z M437.8,323.47c-0.98,0-1.68,0.14-2.24,0.56s-0.98,0.84-1.12,1.54c-0.28,0.7-0.28,1.4-0.28,2.1v4.63
		h-2.24v-10.8h2.24v2.24c0.28-0.7,0.84-1.4,1.4-1.82c0.7-0.42,1.4-0.7,2.24-0.7V323.47z M449.44,321.51l-6.03,15.57h-2.24l1.68-4.63
		l-4.49-10.94h2.52l3.23,7.86l2.81-7.86L449.44,321.51L449.44,321.51z M461.08,326.84c0,1.12-0.14,1.96-0.56,2.95
		c-0.28,0.84-0.98,1.54-1.68,1.96c-0.7,0.56-1.82,0.7-3.09,0.84c-1.26,0-2.38-0.28-3.09-0.7c-0.84-0.56-1.4-1.12-1.68-1.96
		c-0.28-0.84-0.56-1.82-0.56-2.95c0-1.12,0.14-2.1,0.56-2.95c0.28-0.84,0.98-1.54,1.68-1.96c0.7-0.56,1.82-0.7,3.09-0.7
		c1.26,0,2.24,0.28,3.09,0.7c0.84,0.56,1.4,1.12,1.68,1.96C460.94,324.87,461.08,325.86,461.08,326.84z M458.56,326.84
		c0-0.56,0-1.26-0.14-1.82c-0.14-0.56-0.42-1.12-0.84-1.54c-0.42-0.42-0.98-0.7-1.82-0.7c-0.84,0-1.4,0.28-1.82,0.7
		c-0.42,0.42-0.7,0.98-0.84,1.54c-0.14,0.56-0.14,1.26-0.14,1.82s0,1.26,0.14,1.82s0.42,1.12,0.84,1.54c0.42,0.42,0.98,0.7,1.82,0.7
		c0.84,0,1.4-0.28,1.82-0.7s0.7-0.98,0.84-1.54C458.56,328.1,458.56,327.54,458.56,326.84z M473.28,332.31h-2.24v-5.89
		c0-0.42,0-0.84,0-1.4s-0.14-0.98-0.28-1.26c-0.28-0.28-0.7-0.56-1.26-0.56c-0.7,0-1.4,0.28-1.82,0.84
		c-0.42,0.56-0.84,1.12-0.98,1.82c-0.28,0.7-0.28,1.26-0.28,1.82v4.63h-2.24v-10.8h2.24v2.38c0.42-0.84,0.84-1.4,1.54-1.82
		c0.56-0.42,1.4-0.7,2.38-0.7c0.84,0,1.4,0.14,1.96,0.56c0.42,0.28,0.84,0.7,0.98,1.26c0.28,0.56,0.28,1.12,0.28,1.82v7.29H473.28z"
		/>
	<path id="XMLID_99_" class="st1" d="M220.51,243.09l-11.22,3.51c-0.28-2.24-0.98-3.93-2.1-4.91c-1.12-1.12-2.67-1.68-4.63-1.68
		c-1.4,0-2.81,0.42-3.93,1.26c-1.12,0.84-1.96,1.82-2.38,3.09c-0.42,1.4,0.14,2.81,1.4,3.79c1.26,1.12,3.09,2.1,5.19,3.09
		s4.21,2.1,6.17,3.37c2.1,1.26,3.65,2.81,4.63,4.77c1.12,1.96,1.26,4.21,0.56,7.15c-1.4,4.77-4.21,8.56-8.14,10.94
		c-3.93,2.52-8.56,3.79-13.89,3.79c-2.52,0-4.77-0.28-7.01-0.84c-2.1-0.7-4.07-1.96-5.61-3.93c-1.54-1.96-2.81-5.05-3.65-8.98
		l11.92-2.81c-0.14,2.24,0.42,4.07,1.54,5.47s2.95,1.96,5.33,2.1c1.82,0,3.51-0.42,4.77-1.12c1.26-0.7,2.1-1.82,2.52-3.09
		c0.42-1.82,0-3.37-1.26-4.49s-2.95-2.1-5.19-3.09c-2.1-0.98-4.21-1.96-6.31-3.23c-2.1-1.26-3.65-2.81-4.63-4.77
		c-1.12-1.96-1.12-4.63-0.28-7.86c0.98-3.09,2.38-5.61,4.63-7.57c2.1-1.96,4.63-3.51,7.43-4.49c2.81-0.98,5.75-1.54,8.7-1.54
		c4.63,0,8.28,1.12,10.8,3.37C218.55,236.5,219.95,239.45,220.51,243.09 M241.55,243.24l-7.57,26.65c1.68,2.38,3.79,3.51,6.45,3.51
		c1.68,0.14,3.37-0.56,4.91-2.24c1.54-1.54,3.09-4.77,4.49-9.4l2.95-10.38c1.26-4.77,1.54-7.86,0.84-9.4
		c-0.7-1.54-1.96-2.24-3.65-2.24C247.3,239.73,244.5,240.99,241.55,243.24z M232.15,232.29h11.5l-1.68,5.89
		c1.82-1.54,4.07-3.09,6.87-4.49s5.61-2.1,8.56-2.24c4.77,0,7.86,1.68,8.98,4.91c1.26,3.23,0.98,8-0.84,14.31l-3.37,11.78
		c-1.68,6.31-4.21,11.08-7.29,14.31s-7.01,4.91-11.78,4.91c-1.68,0-3.23-0.42-4.91-1.26s-3.65-2.24-6.03-4.21l-7.72,27.07h-12.48
		L232.15,232.29z M340.16,248.99h-12.34l0.56-2.1c0.56-1.82,0.28-3.37-0.84-4.21c-0.98-0.98-2.67-1.4-4.91-1.4
		c-2.24,0-4.07,0.42-5.61,1.4c-1.54,0.98-2.67,2.38-3.23,4.21l-5.47,19.36c-0.56,1.82-0.28,3.37,0.84,4.21
		c0.98,0.98,2.67,1.4,4.91,1.4s4.07-0.42,5.75-1.4c1.54-0.98,2.67-2.38,3.23-4.21l0.84-3.09h12.48c-1.96,6.59-4.91,11.22-9.26,14.17
		c-4.21,2.95-9.54,4.35-15.71,4.35c-6.31,0-10.66-1.4-13.33-4.35c-2.67-2.95-2.95-7.57-1.26-14.03l3.79-13.61
		c1.82-6.45,4.91-11.08,9.26-14.03c4.21-2.95,9.54-4.35,15.71-4.35c6.17,0,10.52,1.4,13.05,4.21
		C341.15,238.47,341.71,242.95,340.16,248.99z M384.49,259.23h-27.07l-1.82,6.45c-0.56,2.38-0.42,4.21,0.56,5.33
		c0.98,1.12,2.67,1.68,4.77,1.68c2.52,0,4.63-0.7,6.17-1.96c1.54-1.26,2.52-2.95,3.09-4.77h12.34c-1.68,5.05-4.63,8.98-8.7,11.64
		c-4.07,2.81-9.26,4.21-15.57,4.21c-6.03,0-10.38-1.54-13.05-4.63c-2.67-3.09-3.37-7.29-1.82-12.62l4.49-15.85
		c1.54-5.33,4.63-9.54,8.98-12.62c4.35-3.09,9.68-4.63,15.57-4.63c5.89,0.14,10.1,1.54,12.91,4.49c2.81,2.95,3.51,7.01,2.1,11.92
		L384.49,259.23z M359.94,250.11h14.59l0.7-2.67c0.56-2.1,0.56-3.93-0.28-5.05c-0.84-1.26-2.52-1.82-5.05-1.82
		c-2.52,0-4.49,0.7-6.03,1.82c-1.54,1.26-2.67,2.95-3.23,5.05L359.94,250.11z M458.7,259.23h-27.07l-1.82,6.45
		c-0.7,2.38-0.42,4.21,0.56,5.33c0.98,1.12,2.67,1.68,4.77,1.68c2.67,0,4.63-0.7,6.17-1.96c1.54-1.26,2.52-2.95,3.09-4.77h12.48
		c-1.68,5.05-4.63,8.98-8.7,11.64c-4.07,2.81-9.26,4.21-15.57,4.21c-6.03,0-10.24-1.54-13.05-4.63c-2.67-3.09-3.23-7.29-1.82-12.62
		l4.49-15.85c1.54-5.33,4.63-9.54,8.98-12.62c4.35-3.09,9.68-4.63,15.57-4.63c5.89,0.14,10.1,1.54,12.91,4.49
		c2.81,2.95,3.51,7.01,2.1,11.92L458.7,259.23z M434.29,250.11h14.59l0.7-2.67c0.56-2.1,0.56-3.93-0.28-5.05
		c-0.84-1.26-2.52-1.82-5.05-1.82c-2.52,0-4.49,0.7-6.03,1.82c-1.54,1.26-2.67,2.95-3.23,5.05L434.29,250.11z M472.86,243.52h-6.45
		l2.52-9.12h6.45l4.77-16.83h12.48l-4.77,16.83h8l-2.52,9.12h-8l-7.01,24.83c-0.28,1.26-0.14,2.1,0.84,2.67
		c0.84,0.56,2.1,0.84,3.79,0.84c0.84,0,1.68,0,2.52-0.14l-2.67,9.4c-2.52,0.28-4.91,0.42-7.29,0.42c-4.07,0-7.15-0.7-9.12-2.24
		c-1.96-1.54-2.52-3.93-1.54-7.43L472.86,243.52z M394.87,265.96l8.84-31.14l4.91-17.25h12.48l-4.91,17.25l-15.01,51.76
		c-1.82,6.31-4.91,10.94-9.12,13.89s-9.54,4.35-15.71,4.35c-6.31,0-10.66-1.4-13.33-4.35c-2.52-2.95-2.95-7.57-1.26-14.03h12.48
		l-0.98,2.95c-0.42,1.82-0.28,3.37,0.84,4.21c0.98,0.98,2.67,1.4,4.91,1.4s4.07-0.42,5.75-1.4c1.54-0.98,2.67-2.38,3.23-4.21
		l1.12-3.93L394.87,265.96z M281.25,232.29h12.48l-13.75,48.53H267.5L281.25,232.29z M295,227.8h-12.34l2.81-10.24h12.48L295,227.8z
		"/>
	<g id="XMLID_121_">
		<g>
			<defs>
				<path id="SVGID_1_" d="M140.84,258.38c0.56-2.81,3.65-5.89,6.87-7.01c3.23-0.98,5.33,0.42,4.63,3.23
					c-0.56,2.81-3.65,5.89-6.87,6.87C142.38,262.59,140.27,261.19,140.84,258.38 M63.26,188.11c3.79-10.24,15.57-17.96,26.09-17.25
					c10.1,0.7,14.87,9.12,10.94,18.52c-3.79,9.4-14.59,16.83-24.69,16.69C65.23,206.06,59.48,198.07,63.26,188.11 M93.98,205.22
					c2.95-7.43,11.5-13.19,18.94-13.05c7.15,0.28,10.38,6.17,7.43,13.19c-2.95,6.87-11.08,12.62-18.24,12.76
					C94.83,218.27,91.04,212.52,93.98,205.22 M119.93,220.09c2.38-5.47,8.56-9.82,13.89-9.82c5.19,0,7.43,4.21,5.05,9.4
					c-2.38,5.19-8.28,9.54-13.47,9.68C120.07,229.49,117.55,225.42,119.93,220.09 M138.03,230.47c1.82-4.07,6.59-7.43,10.38-7.57
					c3.79-0.14,5.33,2.95,3.51,7.01c-1.82,3.93-6.31,7.29-10.24,7.43C138.03,237.48,136.21,234.4,138.03,230.47 M151.36,238.04
					c1.4-3.09,5.05-5.75,8-5.89c2.95-0.14,4.07,2.24,2.52,5.19c-1.4,2.95-4.91,5.61-7.86,5.75
					C151.08,243.38,149.81,240.99,151.36,238.04 M9.12,304.53c-3.23-6.31,3.23-16.27,14.31-21.88c10.8-5.47,21.6-4.35,24.13,2.1
					c2.38,6.31-3.79,15.43-13.89,20.9C23.29,311.13,12.34,310.71,9.12,304.53 M51.9,295.28c-1.96-4.91,3.09-12.34,11.08-16.41
					c7.86-4.07,15.43-3.23,16.83,1.68c1.54,4.77-3.37,11.92-10.8,15.85C61.44,300.47,53.72,300.05,51.9,295.28 M89.07,287.28
					c-1.12-3.79,2.81-9.4,8.56-12.48c5.75-3.09,11.08-2.38,11.92,1.4c0.84,3.65-2.81,9.12-8.42,12.06
					C95.53,291.49,90.06,291.07,89.07,287.28 M115.87,281.67c-0.7-2.95,2.38-7.15,6.59-9.54c4.35-2.38,8.14-1.82,8.7,1.12
					c0.56,2.81-2.38,7.01-6.59,9.4C120.5,284.9,116.57,284.48,115.87,281.67 M135.79,277.46c-0.42-2.24,1.96-5.61,5.19-7.43
					s6.17-1.4,6.45,0.84c0.28,2.24-1.96,5.47-5.19,7.29C139.15,279.99,136.21,279.71,135.79,277.46 M26.37,247.58
					c0.28-8.98,10.1-18.66,21.74-21.46c11.22-2.67,19.5,2.24,18.8,10.8c-0.7,8.42-9.82,17.39-20.62,20.48
					C35.21,260.49,26.23,256.28,26.37,247.58 M65.93,251.09c0.56-6.59,7.86-13.75,15.99-15.99c8-2.1,13.75,1.4,12.91,7.86
					c-0.84,6.31-7.57,13.05-15.43,15.43S65.37,257.54,65.93,251.09 M99.59,254.32c0.7-4.91,6.03-10.24,11.92-11.92
					c5.75-1.68,9.68,0.98,8.98,5.75c-0.84,4.63-5.89,9.82-11.64,11.64C103.1,261.61,98.89,259.23,99.59,254.32 M123.44,256.7
					c0.7-3.65,4.77-7.72,8.98-9.12c4.35-1.26,7.15,0.56,6.45,4.21s-4.63,7.57-8.84,8.84C125.69,262.17,122.74,260.35,123.44,256.7"
					/>
			</defs>
			<clipPath id="SVGID_00000000192472265636867060000014589343804826456237_">
				<use xlink:href="#SVGID_1_"  style="overflow:visible;"/>
			</clipPath>
			
				<linearGradient id="XMLID_00000170246623417497772290000015401190117185138354_" gradientUnits="userSpaceOnUse" x1="-346.8998" y1="571.2108" x2="-345.6622" y2="571.2108" gradientTransform="matrix(-91.844 -37.107 -37.107 91.844 -10514.7207 -65067.6445)">
				<stop  offset="0" style="stop-color:#FFDD00"/>
				<stop  offset="1" style="stop-color:#F58220"/>
			</linearGradient>
			
				<polygon id="XMLID_122_" style="clip-path:url(#SVGID_00000000192472265636867060000014589343804826456237_);fill:url(#XMLID_00000170246623417497772290000015401190117185138354_);" points="
				212.23,189.93 28.05,115.45 -43.06,291.35 141.26,365.83 			"/>
		</g>
	</g>
</g>
</svg>
